<?xml version="1.0" encoding="iso-8859-1"?>
<!-- Uploaded to: SVG Repo, www.svgrepo.com, Generator: SVG Repo Mixer Tools -->
<svg fill="#6495ED" height="800px" width="800px" version="1.1" id="Layer_1" xmlns="http://www.w3.org/2000/svg" xmlns:xlink="http://www.w3.org/1999/xlink" 
	 viewBox="0 0 512 512" xml:space="preserve">
<g>
	<g>
		<path d="M500.967,77.106H329.874c-6.092,0-11.033,4.94-11.033,11.033v68.59v68.579V423.86c0,6.092,4.94,11.033,11.033,11.033
			h171.093c6.092,0,11.033-4.94,11.033-11.033V225.307v-68.579v-68.59C512,82.045,507.061,77.106,500.967,77.106z M489.935,412.828
			H340.907V236.339h149.028V412.828z M489.935,214.274H340.907v-46.513h149.028V214.274z M489.935,145.696H340.907V99.171h149.028
			V145.696z"/>
	</g>
</g>
<g>
	<g>
		<path d="M415.421,179.985h-50.154c-6.092,0-11.033,4.94-11.033,11.033c0,6.092,4.94,11.033,11.033,11.033h50.154
			c6.092,0,11.033-4.94,11.033-11.033C426.453,184.925,421.514,179.985,415.421,179.985z"/>
	</g>
</g>
<g>
	<g>
		<path d="M465.575,111.395H365.267c-6.092,0-11.033,4.94-11.033,11.033c0,6.092,4.94,11.033,11.033,11.033h100.308
			c6.092,0,11.033-4.94,11.033-11.033C476.608,116.336,471.667,111.395,465.575,111.395z"/>
	</g>
</g>
<g>
	<g>
		<path d="M415.421,349.567c-16.626,0-30.152,13.531-30.152,30.164c0,16.626,13.526,30.152,30.152,30.152
			c16.626,0,30.152-13.526,30.152-30.152C445.573,363.097,432.047,349.567,415.421,349.567z M415.421,387.818
			c-4.459,0-8.087-3.628-8.087-8.087c0-4.466,3.628-8.099,8.087-8.099s8.087,3.633,8.087,8.099
			C423.508,384.189,419.88,387.818,415.421,387.818z"/>
	</g>
</g>
<g>
	<g>
		<path d="M415.421,295.309c-6.092,0-11.033,4.94-11.033,11.033v22.352c0,6.092,4.94,11.033,11.033,11.033
			c6.092,0,11.033-4.94,11.033-11.033v-22.352C426.453,300.249,421.513,295.309,415.421,295.309z"/>
	</g>
</g>
<g>
	<g>
		<path d="M278.021,158.129H11.033C4.939,158.129,0,163.07,0,169.162v194.504c0,6.092,4.939,11.033,11.033,11.033h122.462v38.13
			h-54.06c-6.093,0-11.033,4.94-11.033,11.033c0,6.092,4.939,11.033,11.033,11.033h130.184c6.093,0,11.033-4.94,11.033-11.033
			c0-6.092-4.939-11.033-11.033-11.033h-54.06v-38.13h122.462c6.092,0,11.033-4.94,11.033-11.033V169.162
			C289.054,163.07,284.113,158.129,278.021,158.129z M266.988,352.634H22.065v-23.025h184.84c6.093,0,11.033-4.94,11.033-11.033
			c0-6.092-4.939-11.033-11.033-11.033H22.065V180.195h244.923V352.634z"/>
	</g>
</g>
<g>
	<g>
		<path d="M245.519,307.544h-4.78c-6.093,0-11.033,4.94-11.033,11.033c0,6.092,4.939,11.033,11.033,11.033h4.78
			c6.092,0,11.033-4.94,11.033-11.033C256.552,312.484,251.611,307.544,245.519,307.544z"/>
	</g>
</g>
<g>
	<g>
		<path d="M465.575,179.985h-13.614c-6.092,0-11.033,4.94-11.033,11.033c0,6.092,4.94,11.033,11.033,11.033h13.614
			c6.092,0,11.033-4.94,11.033-11.033C476.608,184.925,471.667,179.985,465.575,179.985z"/>
	</g>
</g>
</svg>